# xmcd
#
# Track frame offsets:
#	150
#	20750
#	37981
#	55041
#	68226
#	85319
#	99987
#	118074
#	149274
#	164485
#	177823
#	197251
#	211176
#	227370
#	246115
#	265136
#	280721
#	297376
#	313874
#	325508
#	340497
#
# Disc length: 4730 seconds
#
# Revision: 2
# Processed by: cddbd v1.5.2PL0 Copyright (c) Steve Scherf et al.
# Submitted via: EasyCDDAExtractor 2010.6.0.0
#
DISCID=29127815
DTITLE=Various Artist - Country Hits, Vol. 25
DYEAR=2010
DGENRE=Country
TTITLE0=Aaron Tippin - The Call Of The Wild
TTITLE1=Bellamy Brothers - Tragedy
TTITLE2=Albert Lee - Heaven Only Knows
TTITLE3=Carlene Carter - Come On Back
TTITLE4=Aaron Tippin - Shes Got A Way Of Makin' Me Forget
TTITLE5=Albert Lee - Rock Of Your Love
TTITLE6=Aaron Lines - Let's Get Drunk And Fight
TTITLE7=Albert Lee - Born To Run
TTITLE8=Aaron Tippin - My Blue Agel
TTITLE9=Albert Lee - The Fool (With Strings)
TTITLE10=The Bellamy Brothers - Hard Way To Make An Easy Livin'
TTITLE11=Aaron Tippin - The Sound Of Your Goodbye (Sticks And Stones)
TTITLE12=Adam Hood - Varnado
TTITLE13=Adam Hood - Whole Town Talking
TTITLE14=Albert Lee - Evangelina
TTITLE15=Alecia Nugent - Wishin Hard
TTITLE16=Alison Krauss - Teardrops Will Kiss The Morning Dew
TTITLE17=Aaron Tippin - Roll On
TTITLE18=Bellamy Brothers - Don't Give A Rip
TTITLE19=Aaron Tippin - Drivin' Fool
TTITLE20=Bellamy Brothers - The Andy Griffith Show
EXTD=
EXTT0=
EXTT1=
EXTT2=
EXTT3=
EXTT4=
EXTT5=
EXTT6=
EXTT7=
EXTT8=
EXTT9=
EXTT10=
EXTT11=
EXTT12=
EXTT13=
EXTT14=
EXTT15=
EXTT16=
EXTT17=
EXTT18=
EXTT19=
EXTT20=
PLAYORDER=
